<?xml version="1.0" encoding="UTF-8"?>
<!DOCTYPE svg PUBLIC "-//W3C//DTD SVG 1.1//EN" "http://www.w3.org/Graphics/SVG/1.1/DTD/svg11.dtd">
<!-- Creator: CorelDRAW -->
<svg xmlns="http://www.w3.org/2000/svg" xml:space="preserve" width="50.3286mm" height="50.2534mm" version="1.1" shape-rendering="geometricPrecision" text-rendering="geometricPrecision" image-rendering="optimizeQuality" fill-rule="evenodd" clip-rule="evenodd"
viewBox="0 0 5190.02 5182.26"
 xmlns:xlink="http://www.w3.org/1999/xlink"
 xmlns:xodm="http://www.corel.com/coreldraw/odm/2003">
 <g id="Layer_x0020_1">
  <metadata id="CorelCorpID_0Corel-Layer"/>
  <g id="_2270743208144">
   <path fill="#2065FA" d="M1796.19 4043.77c28.17,2.68 126.28,-51.63 155.84,-71.37l65.45 -41.73c11.53,-7.41 27.69,-28.07 62.88,-53.98 9.18,-6.75 -3.77,-0.36 10.97,-8.07 1.48,0.65 3.29,0.7 3.96,2.8l23.83 13.95c45.98,18.21 36.43,32.17 81.06,58.88 25.6,15.32 30.04,20.37 52.93,37.79l84.34 54.1c22.91,19.4 -0.33,9.54 24.82,21.15 46.98,21.71 3.72,12.95 95.5,43.12 9.18,3.02 79,37.27 102.19,37.13 38.97,0.65 123.08,37.18 177.13,42.23 41.84,3.91 49.2,12.45 89.78,16.7 31.26,3.29 69.05,1.17 91.4,13.44 0.05,36.93 -41.62,48.72 -77.04,78.57 -39.2,33.03 -123.62,93.3 -172.41,104.7 -5.61,19.48 -18.09,13.75 -35.56,19.44 -18.51,6.02 -20.18,12.78 -43.15,20.66 -12.21,4.2 -4.39,0.52 -12.62,4.18 -6.66,2.98 -9.35,5.34 -10.71,6.2 -11.33,7.24 -2.66,6.36 -19.44,9.73 -28.67,5.74 -27.85,2.14 -52.94,13.4 -17.31,7.78 -24.47,11.5 -46.8,15.19 -21.92,3.63 -37.28,10.66 -50.67,13.54l-114.71 14.99c-76.77,9.29 -167.19,10.2 -248.97,4.25 -42.66,-3.08 -70.45,-10.58 -108.86,-17.55l-104.13 -19.31 -18.8 -1.18 -145.87 -337.95c-10.26,-18.79 -15.46,-32.28 -14.16,-57.42 15.94,-10.62 121.35,-34.74 154.78,-37.6l-0.04 0.04zm1095.01 -4043.77l337.52 0c29.65,44.31 60.32,80.07 -4.28,128.7 -57.24,43.07 -251.21,2.9 -349.32,33.4l-73.27 22.43c-24.64,10.49 -41.77,19.14 -64.91,30.78l-143.55 101.02c-42.83,39.5 -78.74,92.89 -106.4,143.51l-38.32 94.64c-6.81,24.84 -7.15,11.6 -14.71,33.15 -36,102.84 15.48,78.82 24.63,78.32 19,-1.02 19.25,2.86 36.67,4.3 6.8,-14.18 8.79,-29.79 16.78,-47.03 29.85,-64.52 46.19,-89.78 90.14,-143.84 21.07,-25.95 62.78,-64.62 92.7,-82.77l76.56 -45.7c34.97,-19.75 77.83,-44.11 120.17,-55.27 23.42,-6.16 24.58,-5.42 43.81,-14.66 26.36,-12.68 61.53,-14.97 93.65,-23.31 33.24,-8.64 73.11,-9.13 106.91,-15.35 72.37,-13.31 279.01,-21.2 324.61,9.7 58.86,39.91 37.58,130.76 -19.67,141.24 -75.55,13.83 -231.43,-19.96 -433.53,39.54 -16.55,4.87 -31.03,6.15 -47.28,11.19l-181.49 89.68c-27.75,20.72 -49.51,46.04 -72.19,71.37 -83.63,93.45 -1.67,59.93 91.78,59.93 90.55,0 647.58,-7.21 709.96,2.24 38.05,5.75 74.98,0.31 113.6,3.34 29.92,2.35 73.7,10.63 102.72,14.2 45.32,5.57 166.85,25.16 199.69,39.52 17.82,7.78 26.03,6.58 46.44,12.04 24.42,6.54 17.12,10.39 41.62,16.85 26.09,6.89 21.99,2.19 44.37,14.09 24.64,13.13 20.58,5 45.28,13.19 15.64,5.19 24.71,12.25 44.31,19.48 11.29,4.18 14.15,5.75 22.39,9.53 6.3,2.86 11.25,4.58 18.85,7.72l78.7 38.25c63.55,40.83 112.13,57.93 167.92,97.9 0.08,0.05 8.16,6.54 8.87,7.11l8.94 7c10.96,7.96 22.93,16.94 34.76,23.73l66.94 50.02c21.95,17.06 42.94,34.82 63.68,53.3l218.6 228.04c5.77,7.04 5.97,8.16 11.04,15.54l99.02 140.28c40.21,59.98 68.43,127.86 101.63,190.86l116.01 357.33c10.49,39.68 26.34,223.53 26.34,271.52 0,164.47 2.72,135.63 -17.59,280.28 -7.94,56.6 -24.68,110.43 -42,165.42 -1.89,6.01 -2.94,11.65 -6.01,20.58 -7.52,21.94 -12.22,21.79 -18.28,40.21 -12.51,38.04 -32.6,66.51 -47.02,101.89 -8.7,21.32 -1.09,4.92 -10.88,21.03l-122.63 169.83c-6.6,7.12 -8.77,11.03 -14.55,17.38 -51.63,56.48 -106.39,109.73 -167.4,156.93l-143.18 90.77c-39.27,22.3 -75.95,44.61 -119.62,61.14 -10.54,3.97 -13.59,4.44 -23.24,8.65 -49.64,21.6 -101.52,30.74 -152.01,49.99l-151.77 28.96c-18.57,0.13 -40.19,-1.45 -58.42,0.05 -78.25,6.48 -206.71,9.8 -271.99,-10.27 -20.57,-6.32 -28.13,-8.87 -52.57,-11.23 -76.8,-7.37 -61.7,-47.08 -133.35,15.37l-85.51 74c-17.08,11.88 -17.35,11.5 -32.19,26.29l-51.71 44.02c-27.87,24.51 -94.47,66.33 -100.41,101.63 -6.12,36.34 -35.94,120.74 -52.76,154.67 -13.69,27.66 -21.19,61.23 -36.07,86.25l-9.09 12.18c-0.64,0.94 -1.55,2.19 -2.16,3.16l-46.53 81.11c-0.61,1 -1.32,2.39 -1.93,3.4 -3.99,6.66 -1.17,3.04 -5.88,10.1 -34.33,51.34 -76.98,102.18 -118.3,147.56l-15.33 16.58c-44.53,50.61 -98.86,99.64 -153.09,139.35l-144.07 95.19c-59.69,29.49 -114.26,60.01 -178.08,82.4 -12.6,4.43 -13.21,3.15 -24.02,7.89 -28.93,12.7 -34.55,16.14 -68.43,21.94 -21.04,3.6 -22.28,9.65 -42.99,15.5l-249.85 42.51c-59.36,0.01 -121.55,4.64 -180.79,-0.28 -20.01,-1.66 -26.72,-6.81 -47.26,-11.23 -29.35,-6.28 -74.85,-4.78 -104.56,-12.37 -19.02,-4.86 -19.85,-10.12 -45.12,-13.38 -46.76,-6.02 -61.13,-28.92 -86.22,-7.15l-97.5 83.57c-0.8,0.74 -1.93,1.87 -2.71,2.6l-108.76 93.3c-0.85,0.7 -2.14,1.61 -3,2.33l-6.01 4.62c-0.85,0.7 -2.06,1.69 -2.9,2.41 -13.34,11.48 -20.01,17.3 -35.22,28.59 -15.56,11.54 -17.58,15.48 -31.2,27.3l-25.85 22c-0.85,0.7 -2.1,1.65 -2.95,2.37l-307.43 261.5c-5.13,3.84 -3.99,2.51 -9.78,6.18 -91.19,57.85 -115.23,-29.16 -137.72,-75.89l-32.62 -84.36c-8.85,-22.49 -8.72,-61.31 -19.7,-97.33 -10.54,-34.62 -7.57,-137.08 -0.4,-167.09 4.82,-20.17 9.73,-31.18 11.54,-52.27 5.01,-58.3 27.43,-127.65 55.71,-178.3l19.25 -39.24c5.86,-10.43 14.76,-25.04 22.7,-35.9 31.42,-43.02 13.27,-39.83 -6.99,-43.98 -47.52,-9.73 -108.3,-39.94 -149.73,-62.92 -16.11,-8.94 -22.39,-14.61 -38.81,-25.02l-25.15 -17.38c-0.97,-0.62 -2.37,-1.36 -3.34,-1.98 -37.66,-24.07 -75.06,-58.92 -106.42,-90.3l-29.37 -29.11c-14.05,-15.58 -14.05,-23.14 -26,-37.82l-63.15 -91.06c-19.58,-34.25 -55.57,-106.4 -63.64,-143.76 -5.04,-23.36 -9.5,-21.77 -16.71,-41.81 -6.2,-17.21 -6.4,-34.22 -12.91,-50.9 -19.92,-51.1 -39.47,-117.87 18.83,-148.39 1.73,-0.92 19.58,-9.1 22.21,-10.14 24.13,-9.38 22.33,-6.22 44.36,3.73l233.28 75.2c27.18,5.44 22.49,5 43.83,14.66 18.3,8.28 29.57,6.85 45.81,12.66l319.64 105.66c56.41,12.81 301.74,101.9 327.49,100.58 7.29,-0.37 29.59,-8.25 46.19,-11.21 72.66,-12.91 55.87,-13.44 94.96,-22l158.01 -59.96c39.52,-28.11 54.86,-31.99 95.44,-69.38l51.45 -54.9c61.67,-74.85 49.08,-76.83 71.9,-114.22 16.06,-26.28 7.88,-8.57 16.58,-41.93 6.28,-24.09 13.47,-22.85 17.56,-46.25 5.67,-32.4 11.29,-56.92 38.15,-78.84 12.87,-10.51 18.32,-15.53 43.9,-15.53 39.41,26.51 112.06,9.35 44.45,183.51 -5.93,15.23 -8.62,28.19 -15.05,43.54 -7.19,17.12 -40.55,59.21 -34.9,76.18 4.96,14.92 105.61,87.34 125.3,102.74l42.66 31.73c29.14,20.45 62.32,39.07 94.21,54.64 37.12,18.12 60.97,22.53 85.9,46.79 27.16,26.4 69.58,21.06 119.67,49.54l116.05 30.98c85.41,10.26 179.77,27.62 276.45,22.91 16.07,-6.43 52.05,-82.98 71.77,-107.84 7.9,-9.95 16.78,-25.67 22.07,-36.27l54.34 -127.56c19.78,-52.61 28.79,-76.67 42.1,-138.49 7.33,-34.02 12.54,-64.02 18.69,-98.81 17.84,-101.08 11.52,-281.43 -4.49,-390.63l-10.79 -47.44c-7.9,-25.95 -9.94,-67.29 -17.94,-98.68 -23.1,-90.78 -49.54,-163.01 -81.17,-248.35 -11.17,-30.15 -8.26,-2.03 -16.99,-40.61 -4.33,-19.17 3.16,-5.84 -7.82,-21.86 -16.54,-24.13 -9.61,3.82 -19.02,-35.9l-29.97 -61.6c-23.31,-40.76 -52.36,8.53 -64.57,35.43l-87.09 96.84c-16.75,15.53 -27.69,31.06 -43.96,46.69 -39.07,37.53 -110.53,100.97 -151.91,129.44 -10.81,7.44 -18.48,12.51 -28.51,19.75l-55.37 34.76c-76.55,40.39 -90.97,56.02 -185.85,96.47 -91.4,38.97 -86.98,29.85 -174.01,55.93 -30.08,9.01 -50.06,7.55 -81.23,14.88 -20.14,4.74 -40.81,17.87 -58.4,25.95 -21.9,9.06 -31.55,-0.24 -46.11,-11.07 -14,-10.43 -19.71,-17.94 -30.25,-33.6 -58.78,-87.3 -127.05,-165.88 -223.89,-212.1 -9.83,-4.68 -13.1,-4.73 -22.3,-9.61 -11.04,-5.84 -7.06,-6.39 -20.21,-11.68 -55.35,-22.3 -146.06,-35.25 -208.5,-36l-372.38 0.35c-96.75,0.39 -284.43,-29.41 -377.26,-63.96 -13.69,-5.08 -29.94,-10.45 -43.23,-15.24 -42.95,-15.5 -90.71,-33.09 -128.51,-57.55l-37.84 -20.63c-17.95,-10.49 -23.52,-13.3 -39.42,-24.38l-58.83 -36.88c-6.81,-5.94 -8.33,-8.01 -17.06,-14.84l-155.61 -131.5c-0.79,-0.76 -1.89,-1.89 -2.64,-2.67 -0.74,-0.79 -1.83,-1.95 -2.56,-2.75 -0.73,-0.8 -1.75,-1.99 -2.5,-2.8l-16.77 -20.46c-9.13,-10.45 -7.9,-7.51 -16.01,-15.88l-83.26 -102.84c-6.89,-8.83 -7.02,-10.18 -13.08,-18.83 -0.65,-0.92 -1.59,-2.16 -2.24,-3.08 -0.65,-0.92 -1.61,-2.14 -2.27,-3.06l-65.38 -110.1c-9.14,-15.1 -1.98,0.39 -9.53,-17.07l-30.86 -64.86c-21.18,-36.57 -26.13,-78.84 -42.23,-111.98 -27.43,-56.49 -8.6,-49.68 -29.02,-98.63 -13.22,-31.7 -9.66,-67.72 -17.38,-104.96 -10.45,-50.44 -31.03,-175.71 4.97,-219.3 17.48,-21.14 50.21,-34.22 88.26,-34.02 134.98,0.68 107.45,25.85 117.79,-52.33l28.3 -109.99c15.17,-26.57 23.52,-70.47 47.93,-116.93 55.09,-104.81 86.83,-151.3 172.94,-236.52l22.69 -19.84c100.17,-83.1 66.41,-51.59 153.13,-107.4l57.06 -28.01c36.59,-21.32 74.97,-29.41 116.59,-42.9l94.91 -16.73c40.16,-7.03 47.28,-14.18 92.39,-13.92 122.67,0.7 247.68,-29.9 281.32,48.36 25.4,59.11 -17.43,116.63 -84.32,116.87l-218.24 -0.33c-59.92,-0.35 -48.59,4.54 -90.12,16.21 -16.46,4.62 -33.07,3.42 -50.1,8.37 -33.27,9.7 -62.67,27.52 -93.81,39.1l-115.65 70.43c-0.96,0.62 -2.31,1.41 -3.25,2.06 -0.93,0.64 -2.2,1.55 -3.1,2.2l-14.71 11.88c-8.54,6.26 -6.42,3.39 -15.7,10.89 -53.69,43.38 -96.31,102.42 -130.32,162.15 -0.58,1.02 -1.34,2.37 -1.95,3.36 -51.14,82.7 -40.77,84.62 -75.15,174.89 -40.71,106.93 25.42,78.73 35.86,78.21 26.16,-1.32 27.45,3.73 47.79,5.42 29.12,-55.09 23.25,-81.69 69.35,-154.01 9.05,-14.22 21.06,-28.66 32.22,-42.23l101.89 -94.85c1.27,-0.92 5.08,-3.38 6.36,-4.26 4.69,-3.2 5.44,-3.59 9.53,-6.42l308.92 -137.66c46.61,-13.88 133.92,-28.68 183.98,-28.68 4.69,26.37 63.74,13.48 116.9,12.34 32.89,-0.7 180.11,-8.97 205.78,10.59l8.22 7.06c44.51,41.93 -10.63,101.78 -10.71,101.93 -50.94,2.23 -269.48,-10.32 -291.48,11.71 73.71,23 196.21,-2.94 268.91,10.64 -31.43,14 -96.92,5.31 -138.22,5.31l-138.13 5.37c-79.36,-0.22 -147.58,12.95 -215.65,39.5 -6.28,2.45 -19.12,4.74 -25.85,6.03l-155.57 73.04c-0.98,0.61 -2.24,1.51 -3.2,2.11 -39.6,26.24 -73.08,55.68 -106.85,89.88 -24.14,24.49 -51,58.6 -51,92.57 132,-10.99 276.15,-5.31 409.25,-5.31 171.62,0 344.18,-5.31 515.72,-0.18l139.3 14.84c17.39,2.34 32.8,0.44 50.4,2.76 26.13,3.44 64.27,3.59 91.5,9.48 29.64,6.42 54.99,11.32 89.25,17.06l120.42 33.75c19.89,7.75 17.5,4.86 39.76,8.07 22.77,3.29 47.1,18.01 75.17,25.84l284.13 130.54c10.99,5.44 25.24,13.11 34.37,18.79l249.21 176.13c0.85,0.7 2.05,1.73 2.88,2.45 0.84,0.72 2.01,1.75 2.84,2.5l27.7 25.47c0.77,0.77 1.86,1.93 2.62,2.68l8.2 7.75c0.8,0.74 2.01,1.77 2.8,2.52 58.9,54.02 127.6,114.89 177.12,179.12 14.83,19.2 28.49,35.77 44.72,56.32 22.72,28.76 47.8,56.04 66.14,88.08l134.82 226.8c29.15,53.42 57.42,144.26 79.11,181.46 9.04,15.5 47.2,27.05 67.65,33.37 12.51,3.88 26.15,3.31 39.45,8.38 53.83,20.54 59.78,28.99 122.12,13.35 20.85,-5.23 20.05,-8.9 39.16,-14 14.53,-3.89 35.52,-4.41 45.93,-7.23 23.05,-6.23 11.32,-6.28 33.9,-13.94 35.88,-12.17 61.07,-19.22 93.9,-39.01l49.68 -30.08c0.84,-0.73 1.99,-1.77 2.8,-2.5l47.75 -37.33 100.7 -138.58c2.42,-5.62 3.95,-11.6 7.52,-19.08 56.06,-117.55 54.71,-265.92 0.03,-383.25 -7.45,-15.96 -9.96,-21.46 -17.58,-35.6l-41.68 -64.67c-26.04,-32.1 -54.39,-62.75 -86.77,-88.71 -6.99,-5.61 -8.38,-5.7 -15.84,-10.75l-46.53 -27.92c-11.74,-7.02 -1.53,-2.95 -16.15,-10.43 -37.58,-19.18 -74.11,-26.47 -115.16,-39.01 -78.16,-23.92 -303.79,-12.77 -396.56,-12.7 -54.7,0.04 -87.3,4.68 -115.7,-38.44 -8.13,-12.32 -10.45,-18.91 -11.86,-36.79 26.66,-12.53 5.61,-34.76 44.43,-61.17 50.31,-34.24 139.37,12.36 183.69,-28.88 56.81,-52.84 107.59,-100.53 159.74,-159.4 36.79,-41.54 66.02,-77.34 97.86,-120.34 18.43,-24.88 27.25,-27.04 44.99,-61.46 23.92,-46.42 37.18,-32.74 63.26,-96.73l125.37 -219.43c20.75,-31.55 28.01,-45.01 39.88,-91.22 11.11,-43.22 28.27,-22.33 23.74,-82.69 -157.17,-22.65 -190.85,-45.12 -379.04,-46.22l-1062.96 -0.05c-30.99,0 -212.91,-11.04 -214.91,8.79 -0.22,2.2 -1.45,2.98 -1.71,4.03 -10.59,42.4 31.5,180.36 41.7,225.56l104.15 226.57c17.26,23.79 17.84,61.1 1.48,82.78 -14.3,18.95 -12.37,-3.35 -12.87,32.32 -51.3,9.51 -72.81,13.35 -107.57,-33.51 -8.7,-11.76 -1.04,-1.53 -7.94,-13.31 -0.6,-1.02 -1.29,-2.42 -1.9,-3.42 -0.6,-1 -1.37,-2.37 -1.98,-3.34l-4.26 -6.36c-6.96,-10.56 -7.29,-11.5 -13.87,-23.36l-65.86 -130.9c-6.72,-16.06 -7.73,-9.06 -14.4,-22.82 -16.38,-33.79 -25.87,-82 -39.34,-114.89 -8.74,-21.34 -5.19,-45.3 -11.23,-68.57 -6.03,-23.22 -15.19,-36.47 -16.3,-63.47 -1.89,-45.36 -19.22,-179.09 8.2,-215.45 7.17,-9.5 10.62,-12.37 18.79,-18.43 38.67,-28.63 113.64,-16.26 164.47,-16.26 0,-22.07 2.74,-26.53 5.1,-48.09l33.89 -120.33 108.22 -200.23c9.76,-12.45 11.33,-18.8 21.14,-32.03 28.44,-38.4 100.19,-100.15 116.19,-112.46l11.77 -9.51c19.99,-14.76 41.29,-30.82 62.65,-43.68 63.52,-38.26 138.47,-76.59 211.95,-91.08 17.69,-3.51 39.6,-5.9 64.21,-7.53l-0.02 -0.02zm-1492.86 4738.22c-19.71,6.09 -129.05,109.13 -158.22,133.43 -28.79,23.99 -6.28,12.32 -55.37,45.52 -51.47,34.81 -49.86,52.84 -82.78,52.12 -19.49,-47.18 -22.3,-158.24 -16.78,-224.61 1.99,-23.73 17.76,-66.72 23.58,-92.55 5.19,-23.05 6.7,-26.74 14.75,-44.93l20.21 -38.71c0.62,-0.85 1.73,-1.97 2.33,-2.83 11.44,-16.38 7.51,-62.99 93.84,-146.17 23.56,-22.7 71.7,-69.82 29.55,-118.03 -12.85,-14.71 -19.17,-18.8 -39.52,-25.06 -30.6,-9.39 -65.86,-5.75 -98.3,-17.64 -26.13,-9.57 -43.15,-9.8 -93.48,-28.32 -144.02,-52.96 -184.18,-104.38 -274.57,-204.65 -17.76,-19.69 -75.85,-122.23 -81.28,-153.22 -21.04,-11.41 -14.53,7.48 -15.35,-31.88 30.49,-25.31 54.78,-1.62 86.74,6.75l120.66 35.73c23.13,13.13 16.9,6.98 42.33,12.17 32.48,6.63 6.39,5.71 35.99,16.7 14.43,5.34 27.48,4.33 42.86,9.91l154.2 53.5c15.27,5.83 27.89,6.09 42.5,10.62 15.48,4.78 15.77,9.67 36.12,15.45l156.06 49.13c6.92,1.42 78.14,21.82 84.96,24.82 35.22,15.56 67.04,96.01 78.6,132.79l123.06 297.36c-2.56,11.88 -35.29,37.72 -44.23,45.4l-5.55 5.08c-0.81,0.7 -1.93,1.8 -2.74,2.52 -28.51,24.8 -200.17,172.18 -220.18,179.59zm2526.59 -1918.16c17.74,-12.5 31.47,-44.55 61.5,-36.55l127.39 96.87c25.35,17.59 9.86,1.29 28.51,25.27 9.96,12.82 85.15,43.62 104.12,60.75 21.82,19.7 -1.75,5.98 32.83,17.33 43.64,14.3 -8.1,2.63 47.12,22.43 19.71,7.06 16.78,10.68 27.46,14.83 11.8,4.58 32.93,6.18 48.41,11.04 32.68,10.28 45.75,22.27 86.09,21.28 48.98,2.24 81.02,17.98 120.36,25.12 40.38,7.33 93.53,-3.82 115.5,17.5 -4.53,11.82 -16.87,22.41 -27.95,32.48 -29.97,27.3 -51.3,38.02 -78.05,55.95 -15.78,10.58 -10.97,19.8 -46.35,26.38 -8.25,1.09 -35.02,18.75 -45.66,24.55 -7.41,4.05 -16.51,8.48 -23.71,13.39 -52.85,36.04 -39.72,15.49 -84.41,37.54 -54.88,27.12 -54.54,23.14 -119.14,40.48 -26.42,7.11 -34.24,13.9 -59.97,19.28l-143.89 16.93c-73.1,1.32 -233.73,3.95 -299.88,-20.05 -73.72,-26.72 -58.73,0.36 -96.91,-62.71l-44.68 -109.79c-17.83,-8.46 -18.47,-22.88 -27.16,-42.8 -18.35,-42.06 -56.67,-113.33 -53.16,-149.91 92.53,-38.85 122.47,-23.57 251.63,-93.19 21.77,-11.74 3.48,-1.13 18.53,-13.51 9.43,-7.75 8.87,-5.79 19.41,-11.96l37.08 -26.11c20.03,-12.04 -1.89,-6.05 24.95,-12.87l0.03 0.03zm-463.89 261.65c9.23,4.7 4.12,-0.72 11.97,9.8l23.69 55c17.14,45.21 90.6,204.8 87.61,215.43l-102.15 88c-9.06,5.84 -12.85,9.78 -21.06,16.82 -14.64,12.57 -27,20.85 -35.74,40.4 -53.69,5.59 -25.6,-3.34 -27.75,-113.33 -1.1,-56.5 -2.9,-103.24 -12.09,-150.69 -11.82,-60.97 5.27,-105.38 -17.71,-142.57 -7.55,-12.21 -5.97,8.37 -8.03,-25.46l-12.33 -110.46c79.11,-8.16 87.62,37.85 103.29,67.94 8.86,17.03 11.12,33.14 10.31,49.1l-0.01 0.03zm-1600.72 -727.95c2.98,-21.86 24.95,-54.4 38.89,-72.62 31.41,-41.05 104.8,-182.72 124.3,-233.97l35.18 -64.87c4.7,-10.97 5.83,-25 11.63,-35.77 31.06,-57.7 5.73,-24.74 30.29,-70.14 30.09,-55.66 -4.85,-86.47 119.37,-30.99l140.59 69.34c95.68,38.99 177.77,106.62 261.2,165.63 16.14,11.42 48.67,33.27 57.45,55.07 14.27,2.76 65.96,60.81 76.71,71.91 115.31,119.13 83.98,91.42 174.97,202.67 44.88,54.87 29.49,42.57 -2.28,92.6l-59.21 84.43c-37.31,49.94 -53.71,56.79 -83.62,86.78 -0.76,0.77 -1.83,1.97 -2.6,2.74l-23.85 28.44c-0.72,0.98 -1.59,2.3 -2.35,3.27l-26.17 22.87c-13.06,9.84 -5.55,5.19 -19.06,17.5 -6.2,5.65 -11.11,9.37 -17.16,14.89 -35.94,32.7 -37.24,35.45 -81.46,62.46 -0.98,0.6 -2.23,1.5 -3.19,2.11l-19.02 12.9c-54.56,38.67 -86.3,61.47 -154.25,89.98 -24.15,10.15 -21.02,15.06 -45.83,22.66 -17.38,5.3 -13.35,2.23 -27.56,10.14 -52.21,29.1 -84.73,24.9 -134.44,41.44 -18.35,6.1 -30.93,19.4 -53.16,19.44 -21.06,0.04 -25.84,-14.75 -37.36,-29.04 -81,-100.45 -61.78,-71.33 -137.57,-144.36 -20.45,-19.71 -104.96,-62.99 -134.44,-77.91 -44.24,-22.39 -117.2,-38.81 -160.6,-50.99 -60.63,-17.04 -99.73,1.83 -125.5,-14.77 4.3,-23.37 1.02,-11.33 17.83,-25.8l166.03 -189.71c16.49,-22.78 92.49,-123.61 96.28,-138.34l-0.03 0.03zm2676.4 -421.13c28.05,-10.96 98.81,-78.48 125.54,-104.34 15.62,-15.12 27.7,-21.65 39.24,-35.38 22.13,-26.3 1.73,-12.81 28.84,-33.79l44.2 -46.97c39.72,-43.01 48.63,-73.75 75.2,-80.63 37.25,22.91 84.67,176.96 103.9,211.58 30.32,54.56 76.6,263.86 79.93,316.9 7.08,112.59 11.71,232.75 0.52,345.3l-53.97 216.48c-7.13,25.56 -12.04,39.88 -23.67,61.67l-64.39 121.16c-12.08,14.99 -24.31,35.37 -39.16,45.44 -20.95,14.22 -130.6,4.74 -162.68,2.54 -28.51,-1.97 -49.73,-11.15 -75.2,-14.64 -14.36,-1.98 -32,-1.3 -45.52,-4.26l-200.2 -65.7c-70.92,-31.2 -158.42,-84.81 -220.08,-130.29l-69.27 -63.26c-30.24,-24.72 -12.01,-23.08 -4.01,-51.89 22.74,-99.8 32.74,-23.12 61.98,-239.73 6.72,-49.83 -5.47,-93.13 -10.05,-138.16 -1.23,-12.16 -1.41,-22.03 -3.15,-33.27 -1.04,-6.71 -2.01,-12.82 -4.07,-18.15 -3,-7.8 -4.7,-8.68 -5.97,-10.62l-10.71 -23c-1.17,-10.06 -0.65,-23.98 -0.05,-34.22 33.39,-22.27 78.24,-21.9 118.52,-38.94l86.1 -33.14c56.18,-19.12 130.15,-64.65 181.44,-98.96 1.29,-0.88 4.76,-3.44 6.05,-4.26l40.68 -17.46 0.02 0.01zm-2540.16 -156.84c0.66,26.34 -10.6,43.39 -20.99,61.13l-27.75 62.81c-6.72,16.57 -4.97,26.19 -9.57,39.66l-24.57 37.49c-17.63,29.73 -9.5,21.46 -16.73,49.12 -7.82,29.9 -3.06,-6.15 -35.06,53.41l-133.22 222.94c-73.38,86.1 -105.16,143.35 -198.09,243.05 -16.43,17.64 -29.83,29.1 -44.65,45.68 -26.64,29.81 -112.91,120.61 -143.72,123.04 -50.44,3.97 -123.13,-0.18 -175.73,-0.66 -145.28,-1.36 -295.88,-43.52 -423.95,-108.25l-141.21 -82.26 -151 -130.42 -192.27 -275.86c-9.73,-18.79 -3.73,-22.96 -10.51,-38.28 -6.7,-15.2 -5.46,2.43 -16.95,-24.67 -9.53,-22.43 -1.71,-13.51 -15.62,-32.28l-32.97 -92.65c-12.45,-51.27 -21.34,-96.09 -24.72,-157.57 -2.47,-44.68 -4.18,-47.89 41.6,-47.24 369.18,5.35 771.95,0.39 1143.06,0.39 115.65,0 241.53,-5.88 351.44,3.84 118.17,10.45 192.89,8.91 303.2,47.58l-0.02 0zm1875.7 -525.69c4.78,-61.79 53.28,-114.68 77.13,-183.18l42.05 -95.97c8.73,-16.57 8.38,-28.97 13.92,-39.07 18.56,-33.9 49.69,0.08 77.06,10.02 38.93,14.11 4.18,9.25 38.34,19.4 84.1,24.98 107.15,46.55 181.57,90.77l36.22 22.19c22.16,11.16 17.12,13.06 37.77,26.34l13.02 8.3c64.22,38.22 121.23,81.91 168.86,135.35 22.03,24.72 43.94,35.35 58.84,52.32 24.87,28.28 108.08,117.92 127.39,148.59 7.86,12.47 13.29,23.85 19.29,33.67 -6.06,24.79 -18.01,31.59 -29.04,50.1 -42.31,71.15 -25.29,35.55 -59.39,73.2l-12.87 13.72c-8.56,9.83 -7.73,13.79 -15.68,26.17l-95.82 102.09c-14.49,16.2 -16.86,9.96 -42.89,36.97 -16.34,16.97 -129.83,85.15 -141.36,91.86l-154.02 77.81c-22.24,5.84 -16.49,2.96 -32.09,12.08 -33.93,19.86 -30.26,6.98 -61.68,17.71 -34.5,11.8 -46.58,18.64 -92.98,14.93 -4.61,-21.08 -13.69,-32.04 -25.95,-48.46 -0.96,-1.27 -3.61,-4.87 -4.57,-6.14 -0.68,-0.92 -1.58,-2.19 -2.27,-3.08l-27.27 -26.97c-20.18,-16.57 -21.02,-28.28 -35.92,-38.57 -27.22,-18.8 4.78,10.35 -43.16,-31.12l-54.12 -40.73c-16.53,-13.07 -112.24,-53.07 -136.56,-60.06 -63.44,-18.19 -99.92,-23 -169.96,-27.2 -0.84,-27.63 21.48,-50.52 42.33,-64.16 23.93,-15.65 168.45,-199.65 192.79,-237.47 5.73,-8.91 4.49,-7.32 9.96,-16.7 6.58,-11.27 11.25,-20.03 17.59,-30.86 25.14,-42.89 32.91,-40.28 42.69,-57.18 25.47,-44.04 15.15,-47.6 40.71,-56.67l0.02 0.01z"/>
   <path fill="#A1BDF8" d="M1108.07 2061.74c-65.72,0.15 -46.17,0.13 -65.89,-16.03 -73.3,-60.1 -39.64,-148.88 55.26,-148.8 28.76,0.01 112.46,-8.81 134.25,10.66 0.76,0.69 1.83,1.91 2.63,2.62 22.98,20.41 41.56,23.05 33.86,85.17 -9.22,74.48 -99.2,66.32 -160.1,66.37l-0.01 0zm888.49 -285.96c-110.31,-38.66 -185.02,-37.13 -303.2,-47.58 -109.91,-9.73 -235.79,-3.84 -351.44,-3.84 -371.12,0 -773.88,4.98 -1143.06,-0.39 -45.78,-0.66 -44.07,2.56 -41.6,47.24 3.39,61.46 12.28,106.28 24.72,157.57l32.97 92.65c13.92,18.77 6.1,9.84 15.62,32.28 11.5,27.1 10.26,9.47 16.95,24.67 6.76,15.32 0.77,19.49 10.51,38.28l192.27 275.86 151 130.42 141.21 82.26c128.09,64.73 278.68,106.88 423.95,108.25 52.6,0.49 125.28,4.64 175.73,0.66 30.8,-2.42 117.1,-93.22 143.72,-123.04 14.83,-16.59 28.21,-28.03 44.65,-45.68 92.91,-99.69 124.7,-156.96 198.09,-243.05l133.22 -222.94c32,-59.55 27.25,-23.52 35.06,-53.41 7.21,-27.66 -0.92,-19.4 16.73,-49.12l24.57 -37.49c4.6,-13.47 2.84,-23.09 9.57,-39.66l27.75 -62.81c10.38,-17.74 21.65,-34.8 20.99,-61.13l0.02 0z"/>
   <path fill="#A1BDF8" d="M3214.47 1069.23c-30.86,60.97 -45.83,46.7 -145.45,46.9 -89.34,0.16 -95.61,-66.33 -79.65,-100.03 10.97,-23.22 23.98,-38.44 53.46,-41.56 44.59,-4.72 137.33,-10.95 164.81,25.2 29.63,38.99 11.59,60.09 6.84,69.47l0 0.01zm-865.17 329.81l5.14 3.84c20.87,17.33 -17.46,-16.45 5.27,4.3 11.53,10.52 0.22,-0.2 10.24,10.72l108.13 110.04c16.22,13.11 38.63,26.65 43.75,47.62 36.83,-5.74 34.24,-39.76 89.84,-31.66 28.31,4.12 56.15,30.46 81.72,44.99l83.71 44.12c41.68,35.62 13.02,62.47 31.69,94.03 13.92,9.43 15.93,7.77 31.91,12.55 16.41,4.9 15.46,6.14 30.38,12.04 26.57,10.52 184.26,36.93 219.4,34.98 26.66,-12.53 5.61,-34.76 44.43,-61.17 50.31,-34.24 139.37,12.36 183.69,-28.88 56.81,-52.84 107.59,-100.53 159.74,-159.4 36.79,-41.54 66.02,-77.34 97.86,-120.34 18.43,-24.88 27.25,-27.04 44.99,-61.46 23.92,-46.42 37.18,-32.74 63.26,-96.73l125.37 -219.43c20.75,-31.55 28.01,-45.01 39.88,-91.22 11.11,-43.22 28.27,-22.33 23.74,-82.69 -157.17,-22.65 -190.85,-45.12 -379.04,-46.22l-1062.96 -0.05c-30.99,0 -212.91,-11.04 -214.91,8.79 -0.22,2.2 -1.45,2.98 -1.71,4.03 -10.59,42.4 31.5,180.36 41.7,225.56l104.15 226.57c17.26,23.79 17.84,61.1 1.48,82.78 -14.3,18.95 -12.37,-3.35 -12.87,32.32l0 -0.01z"/>
   <path fill="#A1BDF8" d="M2132.58 3181.07c26.42,0 13.39,-2.34 21.38,11.5l4.56 11.63c13.48,33.2 34.06,126.29 33.83,163.07 -0.32,49.03 10.49,42.29 -4.39,69.14 39.41,26.51 112.06,9.35 44.45,183.51 -5.93,15.23 -8.62,28.19 -15.05,43.54 -7.19,17.12 -40.55,59.21 -34.9,76.18 4.96,14.92 105.61,87.34 125.3,102.74l42.66 31.73c29.14,20.45 62.32,39.07 94.21,54.64 37.12,18.12 60.97,22.53 85.9,46.79 27.16,26.4 69.58,21.06 119.67,49.54l116.05 30.98c85.41,10.26 179.77,27.62 276.45,22.91 16.07,-6.43 52.05,-82.98 71.77,-107.84 7.9,-9.95 16.78,-25.67 22.07,-36.27l54.34 -127.56c19.78,-52.61 28.79,-76.67 42.1,-138.49 7.33,-34.02 12.54,-64.02 18.69,-98.81 17.84,-101.08 11.52,-281.43 -4.49,-390.63l-10.79 -47.44c-7.9,-25.95 -9.94,-67.29 -17.94,-98.68 -23.1,-90.78 -49.54,-163.01 -81.17,-248.35 -11.17,-30.15 -8.26,-2.03 -16.99,-40.61 -4.33,-19.17 3.16,-5.84 -7.82,-21.86 -16.54,-24.13 -9.61,3.82 -19.02,-35.9l-29.97 -61.6c-23.31,-40.76 -52.36,8.53 -64.57,35.43l-87.09 96.84c-16.75,15.53 -27.69,31.06 -43.96,46.69 -39.07,37.53 -110.53,100.97 -151.91,129.44 -10.81,7.44 -18.48,12.51 -28.51,19.75l-55.37 34.76c-76.55,40.39 -90.97,56.02 -185.85,96.47 -91.4,38.97 -86.98,29.85 -174.01,55.93 -30.08,9.01 -50.06,7.55 -81.23,14.88 -20.14,4.74 -40.81,17.87 -58.4,25.95l-0.04 -0.02z"/>
   <path fill="#A1BDF8" d="M1860.33 2353.75c-3.77,14.73 -79.79,115.56 -96.28,138.34l-166.03 189.71c-16.81,14.45 -13.52,2.43 -17.83,25.8 25.76,16.59 64.86,-2.27 125.5,14.77 43.39,12.2 116.36,28.62 160.6,50.99 29.48,14.92 113.99,58.19 134.44,77.91 75.78,73.03 56.56,43.91 137.57,144.36 11.52,14.3 16.3,29.08 37.36,29.04 22.23,-0.04 34.81,-13.33 53.16,-19.44 49.71,-16.54 82.22,-12.34 134.44,-41.44 14.2,-7.9 10.2,-4.83 27.56,-10.14 24.8,-7.59 21.68,-12.51 45.83,-22.66 67.94,-28.53 99.68,-51.31 154.25,-89.98l19.02 -12.9c0.96,-0.62 2.2,-1.53 3.19,-2.11 44.22,-27.01 45.52,-29.76 81.46,-62.46 6.07,-5.53 10.96,-9.23 17.16,-14.89 13.51,-12.32 6.01,-7.67 19.06,-17.5l26.17 -22.87c0.76,-0.97 1.63,-2.28 2.35,-3.27l23.85 -28.44c0.77,-0.77 1.85,-1.97 2.6,-2.74 29.92,-30.01 46.31,-36.85 83.62,-86.78l59.21 -84.43c31.78,-50.05 47.18,-37.73 2.28,-92.6 -90.99,-111.25 -59.66,-83.54 -174.97,-202.67 -10.76,-11.11 -62.44,-69.15 -76.71,-71.91 -24.41,-6.89 -93.97,-66.68 -126.88,-91.11 -63.97,-47.5 -110.49,-66.92 -160.98,-100.19 -31.43,-20.72 -11.08,-6.72 -36.56,-17.48 -51.14,-21.59 -175.87,-93.76 -221.74,-92.23 -7.12,13.65 -9.11,18.37 -15.31,39.33l-27.2 67.4c-6.55,13.13 -9.98,13.29 -16.25,29.63 -23.04,60.04 -153.59,320.21 -199.39,371.06 -11.54,12.81 3.1,2.43 -14.56,11.96l0.02 -0.05z"/>
   <path fill="#A1BDF8" d="M4536.74 1932.62c-11.25,25.43 -20.46,19.18 -65.36,50.78 -14.18,9.96 -13.56,7.75 -26.3,15.5 -9.76,5.93 -19.88,15.1 -20.86,15.64l-49.32 24.84c-20.45,9.09 -12.53,4.65 -28.93,14.53 -28.05,16.91 -6.91,-5.26 -51.83,22.87l-114.47 39.41c-22.84,9.02 -36.34,9.17 -61.5,17.96l25.73 115.88c8.79,43.03 10.7,96.17 6.4,143.95 -4.33,48.29 -23.21,130.84 -42.91,181.29 -16.43,42.08 -10.93,40.13 -31.41,47.21 -8,28.8 -26.21,27.17 4.01,51.89l69.27 63.26c61.67,45.48 149.16,99.08 220.08,130.29l200.2 65.7c13.52,2.98 31.14,2.28 45.52,4.26 25.47,3.51 46.67,12.68 75.2,14.64 32.07,2.22 141.72,11.69 162.68,-2.54 14.87,-10.08 27.09,-30.44 39.16,-45.44l64.39 -121.16c11.63,-21.79 16.54,-36.1 23.67,-61.67l53.97 -216.48c11.2,-112.55 6.58,-232.69 -0.52,-345.3 -3.34,-53.03 -49.61,-262.32 -79.93,-316.9 -19.22,-34.63 -66.67,-188.67 -103.9,-211.58 -26.56,6.88 -35.47,37.62 -75.2,80.63l-44.2 46.97c-27.12,21 -6.71,7.51 -28.84,33.79 -11.54,13.74 -23.63,20.26 -39.24,35.38 -26.74,25.87 -97.49,93.38 -125.54,104.34l-0.03 0.02z"/>
   <path fill="#A1BDF8" d="M3872.27 1250.07c-25.58,9.06 -15.24,12.62 -40.71,56.67 -9.79,16.9 -17.55,14.3 -42.69,57.18 -6.34,10.84 -11.01,19.6 -17.59,30.86 -5.49,9.37 -4.24,7.78 -9.96,16.7 -24.32,37.82 -168.85,221.81 -192.79,237.47 -20.85,13.63 -43.16,36.53 -42.33,64.16 70.04,4.21 106.52,9.01 169.96,27.2 24.32,6.99 120.02,47.01 136.56,60.06l54.12 40.73c47.95,41.48 15.92,12.32 43.16,31.12 14.91,10.28 15.74,22 35.92,38.57l27.27 26.97c0.69,0.92 1.59,2.18 2.27,3.08 0.96,1.26 3.61,4.86 4.57,6.14 12.25,16.43 21.34,27.38 25.95,48.46 46.39,3.69 58.47,-3.15 92.98,-14.93 31.42,-10.72 27.75,2.16 61.68,-17.71 15.58,-9.13 9.84,-6.24 32.09,-12.08l154.02 -77.81c11.54,-6.71 125.02,-74.88 141.36,-91.86 26.03,-27.02 28.4,-20.79 42.89,-36.97l95.82 -102.09c7.94,-12.39 7.15,-16.37 15.68,-26.17l12.87 -13.72c34.08,-37.65 17.07,-2.05 59.39,-73.2 11.01,-18.51 22.98,-25.31 29.04,-50.1 -6.01,-9.82 -11.44,-21.19 -19.29,-33.67 -19.31,-30.68 -102.51,-120.31 -127.39,-148.59 -14.89,-16.97 -36.83,-27.61 -58.84,-52.32 -47.63,-53.43 -104.64,-97.13 -168.86,-135.35l-13.02 -8.3c-20.63,-13.29 -15.61,-15.19 -37.77,-26.34l-36.22 -22.19c-74.41,-44.21 -97.48,-65.8 -181.57,-90.77 -34.16,-10.14 0.58,-5.27 -38.34,-19.4 -27.37,-9.94 -58.5,-43.94 -77.06,-10.02 -5.54,10.11 -5.19,22.51 -13.92,39.07l-42.05 95.97c-23.85,68.49 -72.34,121.39 -77.13,183.18l-0.02 -0.01z"/>
   <path fill="#A1BDF8" d="M1796.19 4043.77c-11.35,15.65 1,4.22 -16.47,12.93 -5.54,2.76 -9.54,2.6 -17.03,4.52 -44.71,11.41 9.62,6.09 -101.49,25.16 -4.94,28.92 2.63,34.7 12.58,54.63 9.42,18.89 6.1,28.47 19.06,50.57l62.32 144.77c14.79,26.53 8.58,16.24 19.38,50.23 15.32,48.24 39.26,74.85 45.7,91.34l104.13 19.31c38.4,6.98 66.19,14.45 108.86,17.55 81.78,5.95 172.2,5.04 248.97,-4.25l114.71 -14.99c13.4,-2.9 28.75,-9.91 50.67,-13.54 22.35,-3.69 29.49,-7.4 46.8,-15.19 25.1,-11.27 24.28,-7.67 52.94,-13.4 16.78,-3.36 8.1,-2.5 19.44,-9.73 1.36,-0.86 4.05,-3.23 10.71,-6.2 8.22,-3.67 0.41,0.01 12.62,-4.18 22.98,-7.88 24.64,-14.63 43.15,-20.66 17.47,-5.67 29.97,0.04 35.56,-19.44 11.98,-26.23 -4,0.4 9.35,-12.22l21.12 -12.25c56.44,-29.98 93.78,-61.1 143.22,-95.63 12.32,-8.6 16.89,-11.71 26.84,-20.47 18.81,-16.53 16.61,-6.2 22.47,-28.95 -1.44,-0.96 -3.29,-1.75 -4.62,-2.24 -1.32,-0.49 -3.04,-1.53 -4.68,-2.05l-25.76 -4.24c-88.75,-4.78 -51.1,1.61 -108.98,-16.94l-87.8 -11.03c-15.5,-36.06 -44.38,-6.1 -92.22,-42.71l-7.8 -6.89c-23.2,0.11 -93.02,-34.13 -102.19,-37.13 -91.78,-30.16 -48.52,-21.42 -95.5,-43.12 -25.15,-11.61 -1.91,-1.75 -24.82,-21.15l-84.34 -54.1c-22.89,-17.43 -27.34,-22.47 -52.93,-37.79 -44.63,-26.7 -35.07,-40.67 -81.06,-58.88l-23.83 -13.95c-0.66,-2.09 -2.5,-2.16 -3.96,-2.8 -14.75,7.71 -1.8,1.32 -10.97,8.07 -35.21,25.91 -51.36,46.57 -62.88,53.98l-65.45 41.73c-29.55,19.74 -127.67,74.05 -155.84,71.37l0.04 -0.06z"/>
   <path fill="#A1BDF8" d="M682.3 3872.58c5.44,30.99 63.52,133.53 81.28,153.22 90.41,100.26 130.56,151.68 274.57,204.65 50.33,18.51 67.34,18.75 93.48,28.32 32.43,11.88 67.7,8.25 98.3,17.64 20.37,6.24 26.68,10.34 39.52,25.06 42.15,48.21 -6.01,95.34 -29.55,118.03 -86.32,83.19 -82.4,129.79 -93.84,146.17 -0.6,0.86 -1.71,1.98 -2.33,2.83l-20.21 38.71c-8.04,18.19 -9.57,21.88 -14.75,44.93 -5.83,25.83 -21.59,68.82 -23.58,92.55 -5.53,66.37 -2.71,177.44 16.78,224.61 32.92,0.7 31.31,-17.3 82.78,-52.12 49.09,-33.21 26.57,-21.54 55.37,-45.52 29.16,-24.3 138.5,-127.34 158.22,-133.43 10.15,-28.15 -2.68,0.64 7.11,-13.56l141.64 -124.84c8.01,-6.22 10.45,-6.7 18.77,-13.62 11.25,-9.37 19.7,-18.01 30.72,-27.53 80.18,-69.38 65.24,-41.81 45.75,-93.82l-139.22 -329.21c-8.79,-23 -18.01,-41.26 -50.17,-49.71l-312.84 -97.38c-22.66,-9.27 -45.26,-18.49 -70.72,-27.89l-233.2 -75.15c-26.76,-8.64 -51.37,-17.08 -82.24,-22.57 -39.87,-7.11 -33.47,-23.67 -77.56,-23.88 0.58,19.66 1.04,15.77 5.93,33.54l0.02 -0.02z"/>
   <path fill="#A1BDF8" d="M3924.93 2820.05c-7.4,17.25 -9.84,21.68 -33.25,35.52 -21.5,12.7 -18.59,9.3 -37.98,25.07 -31.35,25.48 -127.06,67.78 -174.31,77.73l-86.54 27.83c-0.08,-0.11 -20.07,-1.1 8.49,45.03 11.2,18.08 8.74,24.47 17.12,46.55 12.02,31.77 34.02,59.19 35.19,92.61l44.68 109.79c38.17,63.07 23.18,35.99 96.91,62.71 66.15,23.99 226.78,21.36 299.88,20.05l143.89 -16.93c25.73,-5.38 33.54,-12.2 59.97,-19.28 64.61,-17.33 64.26,-13.35 119.14,-40.48 44.68,-22.07 31.56,-1.5 84.41,-37.54 7.2,-4.92 16.29,-9.33 23.71,-13.39 10.64,-5.82 37.41,-23.46 45.66,-24.55 10.93,-23.81 -0.35,-7.07 17.04,-20.28l81.02 -56.67c13.29,-10.05 19.48,-13.25 20.11,-32.56 -30.81,-13.52 -177.34,-12.73 -201.67,-47.93 -40.34,1 -53.41,-11 -86.09,-21.28 -15.48,-4.87 -36.61,-6.47 -48.41,-11.04 -10.68,-4.14 -7.75,-7.78 -27.46,-14.83 -55.22,-19.8 -3.48,-8.13 -47.12,-22.43 -34.59,-11.35 -11.01,2.37 -32.83,-17.33 -18.97,-17.14 -94.15,-47.93 -104.12,-60.75 -18.65,-23.98 -3.17,-7.67 -28.51,-25.27l-127.39 -96.87c-30.03,-7.99 -43.77,24.05 -61.5,36.55l-0.03 -0.03z"/>
   <path fill="#A1BDF8" d="M3461.04 3081.71c-11.32,-5.77 -6.66,-2.76 -12.68,-16.15l-19.9 -47.03c-14.89,-29.84 -18.97,-41.7 -61.96,-34.9 -3.67,50.82 18.11,76.84 21.59,122.72 3.35,44.15 5.94,92.07 11.67,135.71 6.89,52.4 11.73,146.57 8.87,205.12 -1.14,23.67 -10.87,47.1 11.42,47.77 22.51,-39.05 108.34,-95.21 148.33,-133.01 -0.77,-28.46 -18.26,-52.58 -27.66,-72.59l-27.22 -70.12c-11.85,-33.71 -54.29,-107.89 -52.44,-137.51l-0.02 0z"/>
   <path fill="#2065FA" d="M2521.83 1575.55c0,48.33 -8.68,63.96 28.32,98.35l90.11 58.75c5.4,2.27 5.65,1.5 11.9,4.04 27.39,11.16 18.97,19.04 69.74,31.83 13.61,3.42 10.1,4.43 25.96,0.88 26.68,-5.99 34.91,-18.76 45.87,-29l5.88 -5.18c0.89,-0.79 2.24,-1.95 3.06,-2.66l6.16 -5.54c-18.65,-31.56 9.99,-58.42 -31.69,-94.03l-83.71 -44.12c-25.58,-14.51 -53.42,-40.87 -81.72,-44.99 -55.61,-8.12 -53.02,25.91 -89.84,31.66l-0.02 0z"/>
   <path fill="#2065FA" d="M3214.47 1069.23c4.74,-9.38 22.78,-30.48 -6.84,-69.47 -27.48,-36.17 -120.23,-29.94 -164.81,-25.2 -29.48,3.12 -42.49,18.32 -53.46,41.56 -15.94,33.71 -9.69,100.19 79.65,100.03 99.61,-0.2 114.59,14.05 145.45,-46.9l0 -0.01z"/>
   <path fill="#2065FA" d="M1102.75 1909.1c-41.61,-0.05 -75.61,7.92 -81.33,48.03 -15.5,108.46 85.36,90.29 156.06,89.44 60,-0.72 45.98,-22.44 79.43,-35.79 3.17,-43.12 8.07,-61.15 -17.91,-82.26 -31.73,-25.76 -86.83,-19.33 -136.24,-19.41l0 -0.01z"/>
   <path fill="#5A8DF9" d="M682.3 3872.58c-4.87,-17.78 -5.34,-13.88 -5.93,-33.54 44.08,0.2 37.69,16.77 77.56,23.88 30.86,5.5 55.48,13.95 82.24,22.57l233.2 75.15c25.46,9.39 48.07,18.61 70.72,27.89l312.84 97.38c32.14,8.45 41.37,26.7 50.17,49.71l139.22 329.21c19.48,52.02 34.42,24.45 -45.75,93.82 -11.01,9.53 -19.46,18.16 -30.72,27.53 -8.3,6.92 -10.76,7.4 -18.77,13.62l-141.64 124.84c-9.79,14.2 3.04,-14.59 -7.11,13.56 20.01,-7.4 191.66,-154.79 220.18,-179.59 0.81,-0.7 1.93,-1.8 2.74,-2.52l5.55 -5.08c8.94,-7.68 41.66,-33.53 44.23,-45.4l-123.06 -297.36c-11.56,-36.78 -43.38,-117.23 -78.6,-132.79 -6.83,-3.02 -78.04,-23.4 -84.96,-24.82l-156.06 -49.13c-20.37,-5.77 -20.66,-10.66 -36.12,-15.45 -14.6,-4.53 -27.22,-4.78 -42.5,-10.62l-154.2 -53.5c-15.4,-5.58 -28.43,-4.57 -42.86,-9.91 -29.6,-10.97 -3.51,-10.06 -35.99,-16.7 -25.43,-5.19 -19.2,0.96 -42.33,-12.17l-120.66 -35.73c-31.96,-8.37 -56.24,-32.06 -86.74,-6.75 0.8,39.37 -5.69,20.49 15.35,31.88l-0.02 0.02z"/>
   <path fill="#5A8DF9" d="M1860.33 2353.75c17.66,-9.53 3.02,0.85 14.56,-11.96 45.79,-50.86 176.35,-311.03 199.39,-371.06 6.27,-16.34 9.7,-16.5 16.25,-29.63l27.2 -67.4c6.2,-20.95 8.2,-25.67 15.31,-39.33 45.87,-1.53 170.62,70.64 221.74,92.23 25.48,10.76 5.13,-3.23 36.56,17.48 50.5,33.28 97.02,52.7 160.98,100.19 32.92,24.43 102.48,84.2 126.88,91.11 -8.78,-21.82 -41.3,-43.64 -57.45,-55.07 -83.42,-59.01 -165.52,-126.63 -261.2,-165.63l-140.59 -69.34c-124.22,-55.48 -89.28,-24.67 -119.37,30.99 -24.55,45.38 0.77,12.43 -30.29,70.14 -5.8,10.79 -6.91,24.79 -11.63,35.77l-35.18 64.87c-19.5,51.26 -92.89,192.92 -124.3,233.97 -13.94,18.21 -35.92,50.78 -38.89,72.62l0.01 0.02z"/>
   <path fill="#5A8DF9" d="M3461.04 3081.71c-1.85,29.63 40.59,103.8 52.44,137.51l27.22 70.12c9.39,20.01 26.88,44.13 27.66,72.59 -39.98,37.79 -125.81,93.94 -148.33,133.01 -22.28,-0.68 -12.57,-24.1 -11.42,-47.77 2.86,-58.55 -1.98,-152.72 -8.87,-205.12 -5.71,-43.64 -8.3,-91.56 -11.67,-135.71 -3.49,-45.87 -25.27,-71.9 -21.59,-122.72 42.98,-6.81 47.07,5.05 61.96,34.9l19.9 47.03c6.03,13.38 1.36,10.36 12.68,16.15l0.02 0zm0 0c0.8,-15.96 -1.45,-32.07 -10.31,-49.1 -15.67,-30.09 -24.18,-76.07 -103.29,-67.94l12.33 110.46c2.06,33.83 0.49,13.25 8.03,25.46 22.98,37.18 5.88,81.61 17.71,142.57 9.19,47.45 10.97,94.17 12.09,150.69 2.16,109.99 -25.91,118.91 27.75,113.33 8.74,-19.54 21.1,-27.83 35.74,-40.4 8.21,-7.04 11.98,-10.97 21.06,-16.82l102.15 -88c2.99,-10.63 -70.47,-170.22 -87.61,-215.43l-23.69 -55c-7.85,-10.52 -2.72,-5.09 -11.97,-9.8l0.01 -0.03z"/>
   <path fill="#3B83FF" d="M1193.13 1106.44c4.69,26.37 63.74,13.48 116.9,12.34 32.89,-0.7 180.11,-8.97 205.78,10.59l8.22 7.06c44.51,41.93 -10.63,101.78 -10.71,101.93 -50.94,2.23 -269.48,-10.32 -291.48,11.71 73.71,23 196.21,-2.94 268.91,10.64 10.93,-3.34 23.82,-5.8 32.76,-10.14 25.83,-12.49 39.51,-54.29 39.96,-70.4 0.32,-11.54 -14.16,-39.31 -21.6,-50.44 -12.86,-19.22 -21.8,-21.22 -48.56,-25.87 -39.06,-6.8 -164.56,-2.63 -220.62,-2.86 -35.37,-0.13 -45.54,5.44 -79.57,5.44l0.01 -0.02z"/>
   <path fill="#5A8DF9" d="M4075.98 2622.48c20.47,-7.06 14.97,-5.11 31.41,-47.21 19.7,-50.47 38.58,-133 42.91,-181.29 4.28,-47.77 2.37,-100.92 -6.4,-143.95l-25.73 -115.88c25.16,-8.81 38.66,-8.94 61.5,-17.96l114.47 -39.41c44.92,-28.13 23.78,-5.97 51.83,-22.87 16.41,-9.88 8.49,-5.47 28.93,-14.53l49.32 -24.84c0.98,-0.54 11.11,-9.71 20.86,-15.64 12.74,-7.75 12.13,-5.54 26.3,-15.5 44.9,-31.58 54.11,-25.33 65.36,-50.78l-40.68 17.46c-1.29,0.84 -4.76,3.4 -6.05,4.26 -51.3,34.32 -125.24,79.85 -181.44,98.96l-86.1 33.14c-40.28,17.04 -85.13,16.66 -118.52,38.94 -0.6,10.24 -1.1,24.15 0.05,34.22l10.71 23c1.27,1.93 2.98,2.8 5.97,10.62 2.06,5.33 3.03,11.44 4.07,18.15 1.73,11.24 1.91,21.1 3.15,33.27 4.6,45.03 16.78,88.32 10.05,138.16 -29.22,216.61 -39.22,139.92 -61.98,239.73l0.01 -0.03z"/>
   <path fill="#5A8DF9" d="M2668.85 4393.2c48.78,-11.42 133.2,-71.68 172.41,-104.7 35.43,-29.85 77.12,-41.64 77.04,-78.57 -22.35,-12.28 -60.14,-10.15 -91.4,-13.44 -40.57,-4.25 -47.93,-12.81 -89.78,-16.7 -54.06,-5.04 -138.16,-41.58 -177.13,-42.23l7.8 6.89c47.84,36.61 76.72,6.66 92.22,42.71l87.8 11.03c57.89,18.55 20.23,12.16 108.98,16.94l25.76 4.24c1.63,0.54 3.38,1.55 4.68,2.05 1.32,0.49 3.19,1.3 4.62,2.24 -5.86,22.74 -3.65,12.42 -22.47,28.95 -9.96,8.74 -14.53,11.86 -26.84,20.47 -49.43,34.53 -86.79,65.64 -143.22,95.63l-21.12 12.25c-13.35,12.62 2.64,-14 -9.35,12.22l0 0.01z"/>
   <path fill="#79A2F9" d="M1102.75 1909.1c49.41,0.08 104.51,-6.35 136.24,19.41 25.99,21.11 21.08,39.15 17.91,82.26 -33.44,13.35 -19.44,35.07 -79.43,35.79 -70.69,0.86 -171.57,19.04 -156.06,-89.44 5.71,-40.11 39.72,-48.09 81.33,-48.03l0 0.01zm5.32 152.64c60.88,-0.05 150.88,8.1 160.1,-66.37 7.69,-62.12 -10.88,-64.77 -33.86,-85.17 -0.8,-0.7 -1.87,-1.93 -2.63,-2.62 -21.79,-19.48 -105.48,-10.64 -134.25,-10.66 -94.9,-0.08 -128.57,88.71 -55.26,148.8 19.73,16.17 0.16,16.2 65.89,16.03l0.01 0z"/>
   <path fill="#5A8DF9" d="M3653.65 3170.39c-1.14,-33.41 -23.14,-60.85 -35.19,-92.61 -8.37,-22.08 -5.93,-28.47 -17.12,-46.55 -28.55,-46.13 -8.57,-45.14 -8.49,-45.03l86.54 -27.83c47.24,-9.95 142.95,-52.25 174.31,-77.73 19.4,-15.77 16.49,-12.36 37.98,-25.07 23.4,-13.84 25.84,-18.27 33.25,-35.52 -26.82,6.83 -4.92,0.84 -24.95,12.87l-37.08 26.11c-10.54,6.18 -9.98,4.21 -19.41,11.96 -15.06,12.37 3.24,1.77 -18.53,13.51 -129.18,69.62 -159.09,54.34 -251.63,93.19 -3.52,36.59 34.82,107.86 53.16,149.91 8.69,19.92 9.31,34.34 27.16,42.8l-0.01 0z"/>
   <path fill="#5A8DF9" d="M1820.25 4477.93c-6.46,-16.47 -30.38,-43.09 -45.7,-91.34 -10.8,-34 -4.6,-23.7 -19.38,-50.23l-62.32 -144.77c-12.95,-22.09 -9.65,-31.67 -19.06,-50.57 -9.95,-19.93 -17.52,-25.72 -12.58,-54.63 111.11,-19.08 56.78,-13.78 101.49,-25.16 7.49,-1.91 11.49,-1.74 17.03,-4.52 17.47,-8.72 5.13,2.72 16.47,-12.93 -33.41,2.86 -138.82,26.98 -154.78,37.6 -1.3,25.14 3.91,38.63 14.16,57.42l145.87 337.95 18.8 1.18 0 0.01z"/>
   <path fill="#5A8DF9" d="M4571.88 3210.79c35.38,-6.59 30.6,-15.82 46.35,-26.38 26.76,-17.92 48.09,-28.66 78.05,-55.95 11.08,-10.1 23.42,-20.67 27.95,-32.48 -21.99,-21.32 -75.14,-10.18 -115.5,-17.5 -39.34,-7.15 -71.38,-22.87 -120.36,-25.12 24.32,35.23 170.85,34.41 201.67,47.93 -0.62,19.31 -6.81,22.51 -20.11,32.56l-81.02 56.67c-17.38,13.21 -6.09,-3.53 -17.04,20.28l0.01 0z"/>
  </g>
 </g>
</svg>
